# xmcd CD database file
#
# Track frame offsets:
#	150
#	12887
#	26132
#	55555
#	69962
#	85957
#	104737
#	117877
#	131962
#	161322
#	176452
#	192630
#	212347
#	223370
#
# Disc length: 3211 seconds
#
# Revision: 2
# Processed by: cddbd v1.5.2PL0 Copyright (c) Steve Scherf et al.
# Submitted via: CDex 1.51
#
DISCID=c70c890e
DTITLE=R.J. and Kid Morgan Blues Band - Ready To Go !
DYEAR=1992
DGENRE=Blues
TTITLE0=She's Murder
TTITLE1=Rockin' The Mule
TTITLE2=You're Sweet
TTITLE3=Kidstuff
TTITLE4=Had My Fun
TTITLE5=Forty Days
TTITLE6=Baby, I Don't Care
TTITLE7=R.J.'s Jump
TTITLE8=Change Your Way
TTITLE9=I Got To Find My Baby
TTITLE10=Mccabe's 88's
TTITLE11=Can't Get Nothing
TTITLE12=Evil
TTITLE13=Lighnin' Blues
EXTD=YEAR: 1992
EXTT0=
EXTT1=
EXTT2=
EXTT3=
EXTT4=
EXTT5=
EXTT6=
EXTT7=
EXTT8=
EXTT9=
EXTT10=
EXTT11=
EXTT12=
EXTT13=
PLAYORDER=
